/* XPM */
static char * maximize_pressed_xpm[] = {
"28 18 407 2",
"  	c None",
". 	c #30343B",
"+ 	c #30353C",
"@ 	c #30343C",
"# 	c #30353F",
"$ 	c #303740",
"% 	c #313740",
"& 	c #313942",
"* 	c #313945",
"= 	c #313B48",
"- 	c #323C4B",
"; 	c #333E4D",
"> 	c #323E4F",
", 	c #333F50",
"' 	c #344051",
") 	c #344151",
"! 	c #333E4C",
"~ 	c #313C4A",
"{ 	c #313B47",
"] 	c #303945",
"^ 	c #303841",
"/ 	c #30363F",
"( 	c #2F343D",
"_ 	c #2F333B",
": 	c #303538",
"< 	c #2F353A",
"[ 	c #2F353B",
"} 	c #30363E",
"| 	c #313840",
"1 	c #313843",
"2 	c #313A46",
"3 	c #343F4F",
"4 	c #344253",
"5 	c #344455",
"6 	c #37475A",
"7 	c #37485D",
"8 	c #38485F",
"9 	c #38485E",
"0 	c #374759",
"a 	c #344355",
"b 	c #344152",
"c 	c #333F4E",
"d 	c #323D4B",
"e 	c #31373F",
"f 	c #2F353D",
"g 	c #2E343A",
"h 	c #2E3439",
"i 	c #2E3437",
"j 	c #2F3639",
"k 	c #30373E",
"l 	c #303942",
"m 	c #313B46",
"n 	c #323E4B",
"o 	c #344252",
"p 	c #364656",
"q 	c #39495B",
"r 	c #3A4D60",
"s 	c #3C5065",
"t 	c #3E536C",
"u 	c #3E546E",
"v 	c #3F546B",
"w 	c #3B4F65",
"x 	c #354556",
"y 	c #313A45",
"z 	c #303941",
"A 	c #2F363C",
"B 	c #2E3438",
"C 	c #2D3338",
"D 	c #2E3639",
"E 	c #2E363D",
"F 	c #323D46",
"G 	c #323E4C",
"H 	c #344354",
"I 	c #39485C",
"J 	c #3C4F63",
"K 	c #40566B",
"L 	c #465C74",
"M 	c #49607C",
"N 	c #4D6881",
"O 	c #4F6A84",
"P 	c #506984",
"Q 	c #49607B",
"R 	c #455C74",
"S 	c #40576C",
"T 	c #3C4E63",
"U 	c #38485B",
"V 	c #334253",
"W 	c #313E4B",
"X 	c #313C45",
"Y 	c #2E3640",
"Z 	c #2D353B",
"` 	c #2D3537",
" .	c #2E3339",
"..	c #2E363C",
"+.	c #2F3740",
"@.	c #303A46",
"#.	c #323F4D",
"$.	c #334453",
"%.	c #394A5C",
"&.	c #405168",
"*.	c #455A73",
"=.	c #4E6680",
"-.	c #546F8D",
";.	c #5A7896",
">.	c #617F9C",
",.	c #65839F",
"'.	c #6585A0",
").	c #617F9B",
"!.	c #5B7896",
"~.	c #55708D",
"{.	c #4D657F",
"].	c #455974",
"^.	c #405268",
"/.	c #324253",
"(.	c #313D4C",
"_.	c #2E3845",
":.	c #2E363E",
"<.	c #2D343A",
"[.	c #2E333A",
"}.	c #2F3841",
"|.	c #303B48",
"1.	c #334051",
"2.	c #36485A",
"3.	c #3D5165",
"4.	c #455A72",
"5.	c #4D6682",
"6.	c #577491",
"7.	c #63809F",
"8.	c #6B8BA8",
"9.	c #7293B2",
"0.	c #789AB6",
"a.	c #789CB6",
"b.	c #637F9F",
"c.	c #577392",
"d.	c #4C6582",
"e.	c #445B74",
"f.	c #3D5064",
"g.	c #354759",
"h.	c #313E50",
"i.	c #2F3B46",
"j.	c #2D363F",
"k.	c #2C343C",
"l.	c #2C3239",
"m.	c #2E353F",
"n.	c #2F3743",
"o.	c #313D4A",
"p.	c #344456",
"q.	c #384A60",
"r.	c #40576D",
"s.	c #4C637E",
"t.	c #557190",
"u.	c #6382A1",
"v.	c #6F90B1",
"w.	c #7B9BBA",
"x.	c #84A6C2",
"y.	c #AEC4D8",
"z.	c #DEE7EF",
"A.	c #C0D1E1",
"B.	c #6381A0",
"C.	c #55708F",
"D.	c #4B627E",
"E.	c #3F566D",
"F.	c #384A5F",
"G.	c #303C49",
"H.	c #2D3642",
"I.	c #2C333D",
"J.	c #2C3238",
"K.	c #2D3440",
"L.	c #2F3845",
"M.	c #364557",
"N.	c #3B4D63",
"O.	c #435972",
"P.	c #5C7996",
"Q.	c #698BA8",
"R.	c #7A9CBA",
"S.	c #85A7C4",
"T.	c #A6C0D5",
"U.	c #E0E9F1",
"V.	c #A1BDD7",
"W.	c #D6E2ED",
"X.	c #B6CDDE",
"Y.	c #7A9DBA",
"Z.	c #506985",
"`.	c #3A4B62",
" +	c #364457",
".+	c #2D3643",
"++	c #2B323E",
"@+	c #2B3238",
"#+	c #2C353D",
"$+	c #2E3944",
"%+	c #354458",
"&+	c #3B4D64",
"*+	c #445B72",
"=+	c #516B86",
"-+	c #5E7B98",
";+	c #6C8DAA",
">+	c #7BA0BC",
",+	c #9BB7CE",
"'+	c #DFE9F0",
")+	c #B1C9DE",
"!+	c #97B8D3",
"~+	c #A0BED7",
"{+	c #ADC4D6",
"]+	c #7A9FBC",
"^+	c #6C8CAA",
"/+	c #5D7B99",
"(+	c #506C85",
"_+	c #435A73",
":+	c #394C63",
"<+	c #354457",
"[+	c #303D4B",
"}+	c #2C3742",
"|+	c #2B333B",
"1+	c #2A3137",
"2+	c #2C333F",
"3+	c #2D3743",
"4+	c #323D4C",
"5+	c #3A4C61",
"6+	c #425A73",
"7+	c #506A84",
"8+	c #5C7896",
"9+	c #698AA8",
"0+	c #81A2BD",
"a+	c #CFDCE8",
"b+	c #93B4CF",
"c+	c #95B6D2",
"d+	c #93B5D0",
"e+	c #DDE5EE",
"f+	c #8FACC5",
"g+	c #394B61",
"h+	c #354356",
"i+	c #2C3642",
"j+	c #2B323D",
"k+	c #2A2E35",
"l+	c #2B323B",
"m+	c #2C3540",
"n+	c #374A5E",
"o+	c #3F556C",
"p+	c #4A637D",
"q+	c #55708E",
"r+	c #6380A0",
"s+	c #93ACC4",
"t+	c #A9BFD2",
"u+	c #85A5C3",
"v+	c #8AAAC6",
"w+	c #8AACC7",
"x+	c #9CB5CB",
"y+	c #A2B8CC",
"z+	c #637FA0",
"A+	c #4B637D",
"B+	c #3E556B",
"C+	c #36485E",
"D+	c #324152",
"E+	c #2F3A47",
"F+	c #2B343E",
"G+	c #2A303A",
"H+	c #292D34",
"I+	c #2A3139",
"J+	c #2B333C",
"K+	c #2C3743",
"L+	c #2F3C4E",
"M+	c #334557",
"N+	c #3B4F62",
"O+	c #445972",
"P+	c #4A6581",
"Q+	c #567291",
"R+	c #637E9F",
"S+	c #6A88A9",
"T+	c #7292B2",
"U+	c #789BB7",
"V+	c #627E9F",
"W+	c #4B6680",
"X+	c #445971",
"Y+	c #3A4F63",
"Z+	c #334556",
"`+	c #2E3B4D",
" @	c #2B3641",
".@	c #2A323B",
"+@	c #283038",
"@@	c #282C32",
"#@	c #293035",
"$@	c #2B3540",
"%@	c #2E3948",
"&@	c #30404F",
"*@	c #364659",
"=@	c #3D4F65",
"-@	c #435872",
";@	c #4B647E",
">@	c #536E8B",
",@	c #587695",
"'@	c #5F7E9A",
")@	c #65839D",
"!@	c #6584A0",
"~@	c #526E8B",
"{@	c #425872",
"]@	c #3D4E65",
"^@	c #2F3F4F",
"/@	c #2D3947",
"(@	c #2A3440",
"_@	c #282E33",
":@	c #262B2F",
"<@	c #272D31",
"[@	c #282E35",
"}@	c #29303A",
"|@	c #2D3845",
"1@	c #303D4E",
"2@	c #354557",
"3@	c #394B5E",
"4@	c #3D5368",
"5@	c #475F79",
"6@	c #4B667F",
"7@	c #4E6882",
"8@	c #4F6983",
"9@	c #475F78",
"0@	c #3D5268",
"a@	c #394B5F",
"b@	c #303E4E",
"c@	c #2C3745",
"d@	c #2B353F",
"e@	c #283039",
"f@	c #272D33",
"g@	c #262C30",
"h@	c #252A2D",
"i@	c #262D30",
"j@	c #262C31",
"k@	c #282E34",
"l@	c #293139",
"m@	c #2A343E",
"n@	c #2C3844",
"o@	c #2E3B4B",
"p@	c #314051",
"q@	c #344555",
"r@	c #36495C",
"s@	c #384B61",
"t@	c #3A4F68",
"u@	c #3B506A",
"v@	c #3C5068",
"w@	c #36495D",
"x@	c #304050",
"y@	c #2A333E",
"z@	c #293039",
"A@	c #252B30",
"B@	c #252B2E",
"C@	c #262929",
"D@	c #25292C",
"E@	c #262A2E",
"F@	c #272B30",
"G@	c #282D33",
"H@	c #292F37",
"I@	c #29313A",
"J@	c #2B3541",
"K@	c #2E3A4A",
"L@	c #2F3D4D",
"M@	c #314151",
"N@	c #324256",
"O@	c #324357",
"P@	c #334257",
"Q@	c #28313A",
"R@	c #282E36",
"S@	c #262A30",
"T@	c #25292D",
"U@	c #24282B",
"V@	c #1E2022",
"W@	c #1E2023",
"X@	c #1F2126",
"Y@	c #1F2429",
"Z@	c #202529",
"`@	c #21272C",
" #	c #222931",
".#	c #222B34",
"+#	c #232C36",
"@#	c #252F3A",
"##	c #252F3E",
"$#	c #27303E",
"%#	c #273240",
"&#	c #283340",
"*#	c #222A33",
"=#	c #212830",
"-#	c #20262B",
";#	c #1F2328",
">#	c #1E2227",
",#	c #1E2024",
"'#	c #1D1F22",
")#	c #1C1E21",
"!#	c #424547",
"~#	c #434649",
"{#	c #444649",
"]#	c #45484B",
"^#	c #45494D",
"/#	c #454A4E",
"(#	c #464B4E",
"_#	c #474C51",
":#	c #464D52",
"<#	c #474E54",
"[#	c #484E56",
"}#	c #494F57",
"|#	c #494F59",
"1#	c #495059",
"2#	c #495058",
"3#	c #484F57",
"4#	c #484E55",
"5#	c #474D53",
"6#	c #484D52",
"7#	c #474C50",
"8#	c #474B4E",
"9#	c #474A4D",
"0#	c #46484B",
". + @ # $ % & * = - ; > , ' ) ' , > ! ~ { ] ^ / / ( _ _ ",
": < [ } | 1 2 ! 3 4 5 6 7 8 9 8 7 0 a b c d * 1 e f g h ",
"i j [ k l m n o p q r s t u v u t w r q x ) n y z A h B ",
"C D E ^ F G H I J K L M N O P O N Q R S T U V W X Y Z ` ",
" ...+.@.#.$.%.&.*.=.-.;.>.,.'.,.).!.~.{.].^.I /.(._.:.<.",
"[.:.}.|.1.2.3.4.5.6.7.8.9.0.a.0.9.8.b.c.d.e.f.g.h.i.j.k.",
"l.m.n.o.p.q.r.s.t.u.v.w.x.y.z.A.x.w.v.B.C.D.E.F.H G.H.I.",
"J.K.L.! M.N.O.P P.Q.R.S.T.U.V.W.X.S.Y.Q.P.Z.O.`. +n .+++",
"@+#+$+(.%+&+*+=+-+;+>+,+'+)+!+~+'+{+]+^+/+(+_+:+<+[+}+|+",
"1+2+3+4+ +5+6+7+8+9+0+a+X.b+c+d+T.e+f+9+!.P O.g+h+o.i+j+",
"k+l+m+|.V n+o+p+q+r+s+t+u+v+w+v+u+x+y+z+q+A+B+C+D+E+F+G+",
"H+I+J+K+L+M+N+O+P+Q+R+S+T+0.U+0.T+S+V+Q+W+X+Y+Z+`+ @.@+@",
"@@#@I+$@%@&@*@=@-@;@>@,@'@)@!@)@'@,@~@;@{@]@*@^@/@(@+@_@",
":@<@[@}@m+|@1@2@3@4@O+5@6@7@8@7@6@9@O.0@a@p.b@c@d@e@f@g@",
"h@i@j@k@l@m@n@o@p@q@r@s@t@u@v@u@t@s@w@5 x@o@n@y@z@f@A@B@",
"C@D@E@F@G@H@I@J@c@K@L@M@N@O@P@O@N@M@L@K@c@J@Q@R@G@S@T@U@",
"V@V@W@X@Y@Z@`@ #.#+#@###$#%#&#%#$###@#+#*#=#-#;#>#,#'#)#",
"!#~#{#]#^#/#(#_#:#<#[#}#|#1#2#1#|#}#3#4#5#6#7#7#8#9#0#0#"};
