/* XPM */
static char * maximize_inactive_xpm[] = {
"28 18 44 1",
" 	c None",
".	c #2F3232",
"+	c #2F3132",
"@	c #2E3132",
"#	c #2E3031",
"$	c #2D3031",
"%	c #2D3030",
"&	c #2D2F30",
"*	c #2C2F30",
"=	c #2C2F2F",
"-	c #2C2E2F",
";	c #4D4F50",
">	c #797B7C",
",	c #5E6060",
"'	c #424445",
")	c #797B7B",
"!	c #36393A",
"~	c #6E7071",
"{	c #525455",
"]	c #2B2E2F",
"^	c #2B2D2E",
"/	c #3B3E3E",
"(	c #787A7B",
"_	c #464849",
":	c #2A2D2E",
"<	c #353839",
"[	c #4C4E4F",
"}	c #303333",
"|	c #6D6F6F",
"1	c #515354",
"2	c #404344",
"3	c #3B3D3E",
"4	c #2A2D2D",
"5	c #2A2C2D",
"6	c #292C2D",
"7	c #26292A",
"8	c #262929",
"9	c #262829",
"0	c #252828",
"a	c #252728",
"b	c #383B3C",
"c	c #393C3D",
"d	c #3A3D3E",
"e	c #3B3E3F",
".+++@@@@@@@@###########@@@@@",
".+@@@@@@@@##############@@@@",
"++@@@@@@@@#################@",
"+@@@@@@@####$$$$$$$$$$$$####",
"##$$$%&&&&&&*************&&&",
"#$$$%&&&*****===========****",
"$$%&&&****==-;>,--------====",
"%&&&***===--')!~{-----------",
"---]]]]]^^^/(_:<([::::::^^^^",
"-]]]]]^^^^}|1:::2(3::::::::^",
"]]]]^^^^^^_1:::::_1:::::::::",
"]]]]^^^^::::::::::::::::::::",
"^:::445555666666666666666665",
":::4455555666666666666666665",
":::4455555666666666666666665",
"::44555566666666666666666666",
"789999000000aaaaaaaaaaaa0000",
"bcccdddddddeeeeeeeeeeeeeeedd"};
