/* XPM */
static char * title_2_inactive_xpm[] = {
"8 25 8 1",
" 	c None",
".	c #303334",
"+	c #5D6061",
"@	c #353839",
"#	c #343738",
"$	c #333637",
"%	c #323536",
"&	c #313435",
"........",
"++++++++",
"@@@@@@@@",
"@@@@@@@@",
"########",
"########",
"########",
"########",
"$$$$$$$$",
"$$$$$$$$",
"$$$$$$$$",
"$$$$$$$$",
"%%%%%%%%",
"%%%%%%%%",
"%%%%%%%%",
"%%%%%%%%",
"&&&&&&&&",
"&&&&&&&&",
"&&&&&&&&",
"&&&&&&&&",
"........",
"........",
"........",
"........",
"........"};
